<?xml version="1.0" standalone="no"?>
<!DOCTYPE svg PUBLIC "-//W3C//DTD SVG 20010904//EN"
 "http://www.w3.org/TR/2001/REC-SVG-20010904/DTD/svg10.dtd">
<svg version="1.0" xmlns="http://www.w3.org/2000/svg"
 width="260.000000pt" height="260.000000pt" viewBox="0 0 260.000000 260.000000"
 preserveAspectRatio="xMidYMid meet">
<metadata>
Created by potrace 1.14, written by Peter Selinger 2001-2017
</metadata>
<g transform="translate(0.000000,260.000000) scale(0.100000,-0.100000)"
fill="#000000" stroke="none">
<path d="M1236 2589 c5 -9 2 -10 -9 -6 -9 3 -19 1 -23 -5 -4 -7 -3 -8 4 -4 7
4 12 2 12 -3 0 -6 -5 -11 -11 -11 -5 0 -7 -4 -4 -10 3 -5 1 -10 -5 -10 -6 0
-8 -5 -4 -12 5 -8 0 -7 -11 2 -17 14 -18 14 -5 -10 13 -24 12 -24 -5 -10 -10
8 -16 10 -12 3 4 -6 1 -14 -5 -16 -10 -4 -9 -6 1 -6 11 -1 11 -4 0 -18 -11
-13 -11 -17 -1 -20 6 -3 12 -9 12 -14 0 -6 -4 -7 -10 -4 -5 3 -10 1 -10 -4 0
-6 6 -11 13 -11 8 0 7 -4 -3 -10 -13 -9 -13 -10 0 -10 12 0 12 -2 2 -9 -11 -7
-11 -9 2 -14 9 -4 16 -12 16 -19 0 -10 -2 -10 -9 1 -5 8 -11 9 -15 3 -3 -6 3
-14 15 -17 16 -5 20 -13 16 -32 -3 -16 1 -27 10 -30 12 -5 12 -7 1 -15 -9 -7
-6 -8 10 -5 13 3 21 3 18 0 -3 -4 0 -13 7 -22 11 -14 10 -15 -8 -2 -12 9 -10
5 5 -11 26 -27 69 -29 99 -5 9 8 12 8 8 1 -3 -6 0 -11 7 -11 9 0 12 7 8 16 -5
14 -4 14 11 2 15 -12 17 -12 11 3 -3 9 -1 16 5 16 6 0 11 -4 11 -10 0 -5 9 -1
20 10 11 11 26 20 33 20 8 0 7 -3 -3 -10 -12 -7 -10 -9 8 -7 25 1 27 7 10 27
-7 8 -2 6 11 -5 14 -11 21 -15 18 -9 -4 7 0 17 8 24 13 11 15 10 9 -6 -5 -17
-4 -17 8 -4 7 9 23 15 36 14 12 -1 25 3 29 9 3 6 1 7 -5 3 -7 -4 -13 -2 -13 3
-1 6 -2 17 -3 24 -1 6 3 18 8 26 9 11 6 13 -14 6 -24 -7 -24 -7 -5 9 18 14 19
15 2 16 -10 0 -15 5 -12 10 3 6 0 10 -7 11 -7 0 -4 4 7 9 19 8 19 9 1 9 -13 1
-17 6 -13 21 4 15 0 20 -16 21 -14 0 -17 3 -8 6 10 4 8 9 -10 19 -15 8 -18 13
-9 14 8 0 0 9 -19 21 -28 17 -32 23 -20 31 11 8 10 9 -3 4 -22 -7 -48 2 -48
16 0 6 8 4 18 -3 15 -12 16 -12 4 2 -16 21 -189 28 -176 8z"/>
<path d="M1090 2461 c0 -6 5 -13 10 -16 6 -3 10 -11 10 -17 0 -6 -8 -4 -17 5
-16 14 -20 14 -42 -4 -13 -10 -18 -19 -12 -19 6 0 11 -5 11 -11 0 -6 -6 -9
-13 -6 -10 4 -13 -2 -9 -20 4 -19 2 -24 -8 -18 -9 5 -10 2 -5 -14 5 -16 3 -20
-9 -15 -9 3 -16 2 -16 -4 0 -6 6 -13 13 -15 8 -4 6 -6 -4 -6 -11 -1 -15 -9
-13 -26 2 -22 -1 -25 -19 -19 -22 6 -22 6 -2 -10 11 -9 16 -16 10 -15 -21 3
-35 -1 -35 -11 0 -5 8 -7 18 -4 11 4 9 0 -7 -14 -18 -14 -21 -21 -11 -27 9 -6
11 -4 5 5 -6 9 -4 11 4 5 9 -5 7 -13 -10 -31 -28 -30 -38 -31 -13 -1 l19 22
-22 -19 c-18 -15 -20 -22 -12 -38 9 -16 8 -19 -2 -13 -9 6 -10 3 -5 -11 4 -10
4 -15 0 -12 -12 13 -33 -19 -30 -45 2 -16 -1 -24 -7 -20 -6 4 -8 -2 -5 -15 4
-14 2 -20 -5 -15 -6 4 -8 0 -4 -10 3 -9 1 -19 -5 -23 -6 -4 -8 -3 -4 4 3 6 3
13 -2 16 -4 2 -9 -7 -10 -22 -1 -14 -8 -29 -15 -34 -9 -6 -8 -8 2 -8 11 0 9
-4 -5 -15 -12 -10 -14 -14 -4 -12 8 2 12 2 7 0 -4 -3 -5 -9 -2 -14 4 -5 -1 -6
-10 -3 -13 5 -15 1 -11 -20 3 -15 1 -24 -5 -21 -5 4 -9 -1 -9 -10 0 -10 -5
-13 -12 -9 -9 5 -8 2 1 -9 8 -10 11 -20 7 -24 -3 -3 -6 -1 -6 5 0 14 -22 12
-32 -3 -5 -6 -8 -5 -8 3 0 6 -5 12 -11 12 -5 0 -8 -4 -4 -9 3 -5 0 -13 -6 -17
-7 -4 -9 -3 -5 4 3 6 2 13 -3 17 -5 3 -14 -3 -20 -12 -8 -14 -11 -15 -12 -3
-1 8 0 20 1 25 1 6 -11 -1 -26 -15 -16 -14 -23 -17 -16 -8 11 14 11 16 -3 14
-9 -1 -21 -9 -26 -17 -7 -12 -9 -12 -10 1 -1 8 0 20 1 25 1 6 -11 -1 -26 -15
-16 -14 -23 -17 -16 -8 11 14 11 16 -3 14 -9 -1 -21 -9 -26 -17 -7 -12 -9 -12
-10 1 -1 8 -1 19 1 25 1 5 -8 1 -19 -9 -14 -13 -21 -15 -21 -6 0 10 -3 10 -14
1 -11 -10 -17 -8 -26 6 -11 17 -11 17 -6 0 4 -14 -3 -22 -29 -33 -19 -8 -34
-18 -34 -22 3 -20 -2 -25 -12 -12 -8 12 -9 10 -4 -9 6 -18 4 -22 -6 -16 -8 5
-11 5 -7 0 4 -4 3 -16 -3 -26 -7 -14 -6 -17 4 -13 8 3 20 -3 28 -12 9 -12 10
-15 1 -10 -7 4 -12 2 -12 -4 0 -20 20 -49 41 -61 13 -7 19 -7 15 -1 -3 6 -1
14 5 18 7 4 9 3 5 -4 -3 -6 -2 -13 4 -17 6 -4 7 -11 4 -17 -4 -7 -2 -8 5 -4 6
4 9 12 6 17 -3 5 1 6 9 3 9 -3 14 -9 12 -13 -4 -5 50 -6 64 -1 3 1 10 1 15 0
28 -6 103 -4 98 3 -2 4 -1 7 4 7 4 0 13 -11 20 -25 7 -17 8 -23 0 -18 -6 4 -8
0 -4 -10 5 -12 1 -17 -13 -17 -11 0 -20 -5 -20 -11 0 -5 4 -8 9 -4 5 3 12 1
16 -5 3 -5 -1 -10 -10 -10 -11 0 -15 -5 -12 -15 4 -8 1 -17 -4 -21 -6 -3 -9
-14 -6 -24 3 -13 0 -17 -9 -13 -8 3 -14 10 -14 16 0 6 -3 7 -6 4 -4 -4 -1 -14
7 -24 12 -14 12 -16 0 -8 -11 6 -13 4 -8 -8 3 -9 1 -19 -5 -23 -7 -4 -8 -3 -4
4 4 7 3 12 -2 12 -15 0 -22 -13 -12 -24 6 -8 3 -12 -9 -12 -10 0 -17 6 -14 12
2 7 -1 15 -8 20 -7 4 -10 3 -5 -4 11 -18 -16 -26 -29 -9 -7 9 -15 14 -18 10
-4 -3 -3 -11 3 -17 6 -8 3 -12 -9 -12 -10 0 -17 6 -14 12 2 7 -1 15 -8 20 -7
4 -10 3 -5 -4 11 -18 -16 -26 -29 -9 -7 9 -15 14 -18 10 -4 -3 -3 -11 3 -17 6
-8 3 -12 -9 -12 -10 0 -17 6 -14 12 2 7 -1 15 -8 20 -7 4 -10 3 -5 -4 11 -18
-16 -26 -29 -9 -7 9 -15 14 -18 10 -4 -3 -3 -11 3 -17 6 -8 3 -12 -9 -12 -10
0 -17 6 -14 12 2 7 -1 15 -8 20 -7 4 -10 3 -5 -4 11 -18 -16 -26 -29 -9 -7 9
-15 14 -18 10 -4 -3 -3 -11 3 -17 6 -8 3 -12 -9 -12 -10 0 -17 6 -14 12 2 7
-1 15 -8 20 -7 4 -10 3 -5 -4 11 -18 -16 -26 -29 -9 -12 17 -31 24 -21 8 3 -5
-1 -14 -9 -21 -13 -11 -14 -10 -9 5 7 16 5 16 -17 3 -13 -8 -34 -14 -47 -13
-15 2 -21 -2 -18 -11 3 -8 -2 -11 -14 -9 -10 2 -25 -4 -32 -13 -12 -15 -11
-16 5 -3 15 12 17 11 14 -7 -2 -12 -7 -25 -12 -29 -4 -5 -5 -2 -1 5 4 6 2 12
-3 12 -6 0 -11 -20 -11 -44 0 -36 5 -48 26 -65 14 -11 23 -25 19 -30 -4 -7 2
-8 17 -2 19 7 27 4 46 -18 13 -14 21 -21 19 -16 -3 6 1 16 9 23 8 7 14 9 14 4
0 -5 12 -14 27 -21 24 -10 26 -10 11 2 -19 15 -25 32 -7 22 17 -11 72 -17 66
-8 -3 5 5 9 19 9 22 0 29 -8 25 -29 -1 -4 8 -2 18 5 11 7 18 15 16 18 -2 3 7
6 21 6 23 0 29 -8 24 -31 -1 -5 7 -2 18 8 10 9 22 14 25 11 4 -4 14 -1 24 7
11 9 14 10 9 2 -4 -8 -2 -13 5 -13 7 0 9 -3 6 -6 -3 -4 -2 -15 3 -25 8 -13 6
-20 -7 -28 -14 -8 -15 -11 -3 -11 10 -1 9 -4 -5 -10 -11 -5 -15 -9 -8 -9 7 -1
10 -8 7 -16 -6 -14 -8 -14 -18 0 -9 13 -11 11 -12 -10 -1 -14 2 -22 8 -19 5 3
4 -3 -3 -14 -7 -12 -18 -18 -24 -14 -5 3 -4 -2 4 -12 12 -14 12 -19 1 -29 -10
-10 -11 -9 -5 2 6 10 4 12 -4 7 -7 -5 -10 -15 -6 -23 4 -13 3 -14 -9 -4 -11 9
-16 9 -22 0 -4 -7 -3 -9 4 -5 5 3 12 1 14 -6 7 -20 -3 -58 -15 -58 -6 0 -3 -6
8 -13 14 -11 15 -16 5 -22 -9 -6 -11 -4 -5 5 5 8 4 11 -2 7 -6 -4 -8 -18 -6
-32 3 -13 10 -22 15 -19 6 4 8 -1 4 -14 -5 -15 -1 -21 16 -27 13 -4 27 -7 31
-6 5 1 6 -3 2 -9 -4 -6 -12 -7 -19 -3 -7 4 -3 0 8 -10 15 -14 21 -15 27 -5 7
10 9 10 10 -2 1 -8 1 -19 0 -24 -1 -5 11 -1 26 9 21 14 25 15 15 3 -10 -13
-10 -17 3 -22 9 -3 13 -2 10 4 -3 6 -2 10 4 10 5 0 12 -6 14 -13 4 -7 6 -6 6
5 1 11 7 15 22 11 12 -4 25 0 30 8 7 12 9 12 9 0 0 -11 4 -9 14 4 8 11 12 24
9 29 -4 5 -1 6 6 1 9 -5 10 -10 2 -18 -6 -6 -11 -15 -11 -20 0 -5 12 5 26 22
14 17 23 35 19 41 -3 5 1 10 9 10 10 0 13 6 9 16 -3 8 4 25 17 39 13 14 20 31
16 40 -4 11 2 19 19 25 14 5 25 12 25 15 0 4 -4 3 -10 0 -5 -3 -10 1 -10 10 0
9 4 14 9 11 5 -3 12 1 15 10 3 8 2 12 -4 9 -6 -3 -10 -2 -10 2 0 5 9 14 20 21
13 8 17 18 13 29 -6 16 -5 17 13 3 18 -14 18 -14 3 5 -18 22 -14 49 4 38 7 -4
7 -1 -1 9 -9 11 -10 18 -2 23 6 3 7 11 4 17 -4 7 -2 8 5 4 8 -6 9 -12 2 -20
-8 -9 -7 -13 3 -13 9 0 13 8 11 20 -3 14 0 17 13 13 14 -5 13 -3 -2 9 -18 14
-15 20 8 16 5 -1 4 4 -2 12 -12 14 -6 27 12 27 6 0 4 -5 -4 -11 -12 -9 -12
-10 4 -5 10 4 24 2 31 -4 8 -7 12 -5 12 5 0 8 -4 12 -8 9 -4 -2 -10 -1 -13 4
-2 4 11 8 30 8 31 0 39 -7 35 -29 -1 -4 8 -2 18 5 11 7 18 15 16 18 -2 3 7 6
21 6 23 0 29 -8 24 -31 -1 -5 7 -2 17 8 18 15 21 15 43 0 13 -9 21 -12 18 -7
-3 5 0 15 8 22 14 12 19 8 14 -13 -1 -5 2 -7 5 -3 4 4 17 3 29 -3 19 -9 19 -9
4 4 -19 15 -25 32 -7 22 17 -11 72 -17 66 -8 -3 5 5 9 19 9 22 0 29 -8 25 -30
-1 -5 4 -4 12 2 8 7 17 9 21 5 4 -4 4 1 1 12 -6 19 -6 19 8 2 13 -15 15 -16
21 -2 5 14 9 14 33 -2 26 -16 27 -16 14 0 -9 12 -10 17 -2 17 6 0 14 -7 17
-15 6 -14 8 -13 19 1 8 12 14 14 19 6 4 -7 15 -12 24 -12 14 0 14 2 3 9 -9 6
-4 8 18 7 29 -1 36 -8 31 -31 -1 -5 7 -2 17 8 18 15 21 15 44 0 13 -9 21 -13
17 -9 -10 12 15 34 30 28 11 -4 11 -6 0 -14 -10 -8 -10 -9 2 -5 8 2 14 13 13
23 -1 17 1 16 14 -4 9 -12 21 -22 27 -22 6 0 5 4 -3 9 -8 5 -10 14 -6 21 6 9
13 6 25 -10 l18 -24 -4 32 c-2 18 -13 50 -24 72 -11 23 -19 44 -16 49 3 4 -1
8 -9 8 -8 0 -12 -4 -9 -8 2 -4 0 -10 -5 -13 -11 -7 -9 13 3 32 4 7 5 16 2 19
-3 4 -6 1 -6 -5 0 -7 -4 -12 -10 -12 -5 0 -9 3 -8 8 1 4 -1 17 -6 30 -7 20
-41 30 -80 23 -5 -1 -4 4 2 12 9 11 8 14 -3 14 -8 0 -12 -3 -10 -7 2 -3 0 -12
-6 -20 -7 -13 -9 -12 -9 3 0 20 -11 22 -28 5 -7 -7 -12 -8 -12 -3 0 6 -5 3
-11 -5 -9 -13 -10 -13 -6 0 2 8 10 14 16 12 7 -1 10 2 6 7 -7 13 -35 3 -35
-13 0 -6 -5 -3 -11 7 -10 18 -11 18 -32 0 -11 -10 -17 -12 -12 -4 5 9 3 12 -6
9 -8 -3 -13 -11 -11 -18 2 -11 0 -11 -12 -1 -10 8 -16 9 -21 1 -5 -8 -11 -8
-21 1 -7 6 -11 16 -7 22 3 6 1 7 -6 3 -6 -4 -9 -11 -6 -16 3 -4 -2 -10 -10
-13 -9 -4 -12 -1 -9 7 3 8 0 17 -7 22 -7 4 -10 3 -5 -4 11 -18 -16 -26 -29 -9
-7 9 -15 14 -18 10 -4 -3 -3 -11 3 -17 6 -8 3 -12 -9 -12 -10 0 -17 6 -14 12
2 7 -1 15 -8 20 -7 4 -10 3 -5 -4 12 -19 -17 -26 -30 -7 -8 10 -17 16 -20 12
-4 -4 -2 -12 4 -20 8 -10 7 -13 -7 -13 -12 0 -17 5 -13 15 3 9 1 12 -5 8 -6
-4 -13 -4 -16 0 -2 5 -2 3 -1 -4 2 -6 -3 -14 -11 -17 -9 -3 -12 0 -9 8 3 8 0
17 -7 22 -8 4 -10 3 -5 -4 7 -12 -10 -16 -48 -12 -13 1 -16 -2 -10 -12 6 -10
5 -11 -8 -1 -8 7 -18 9 -23 5 -4 -4 -2 4 5 18 13 24 12 24 -5 10 -14 -11 -17
-11 -11 -1 5 8 3 17 -5 22 -12 7 -11 9 1 9 22 1 53 47 38 56 -7 5 -8 3 -3 -6
5 -9 4 -11 -4 -6 -6 4 -9 12 -5 17 3 5 9 7 14 4 11 -7 21 10 25 41 1 14 11 33
21 42 14 14 16 14 8 2 -5 -10 -2 -9 8 2 16 18 34 25 25 11 -3 -5 6 -8 19 -8
13 0 24 4 24 8 0 4 9 3 19 -3 14 -7 22 -7 26 0 4 6 11 8 16 5 17 -11 50 -14
44 -4 -4 5 -2 9 4 9 5 0 12 -6 14 -12 3 -7 6 -8 6 -3 1 10 84 11 100 0 5 -3
13 0 17 6 4 8 9 7 15 -2 7 -11 9 -11 9 -1 0 7 4 11 9 7 5 -3 23 -7 40 -9 28
-3 29 -2 19 18 -10 20 -10 20 7 6 17 -14 17 -14 7 6 -6 12 -8 24 -5 28 3 3 -1
6 -10 6 -13 0 -15 5 -7 24 8 21 6 24 -13 22 -16 -2 -23 3 -23 15 0 10 5 15 11
13 5 -3 2 1 -7 9 -10 8 -18 24 -18 36 0 18 -4 21 -22 16 -18 -5 -20 -4 -8 4
13 9 13 12 1 23 -12 11 -13 10 -6 -2 6 -12 5 -12 -5 -3 -7 6 -19 9 -28 6 -9
-4 -13 -2 -9 3 3 6 -8 10 -29 9 -19 0 -39 -7 -44 -15 -9 -13 -10 -13 -11 0 -1
8 -1 19 0 23 1 5 -4 5 -11 0 -7 -4 -16 -8 -20 -8 -3 0 -10 -4 -15 -9 -5 -5 -2
-6 6 -1 10 5 12 4 7 -4 -4 -6 -12 -9 -17 -5 -5 3 -7 10 -4 15 4 5 1 9 -5 9 -6
0 -8 6 -4 13 4 7 3 9 -2 4 -5 -5 -9 -14 -9 -19 0 -6 -7 -13 -15 -15 -12 -4
-12 -3 -2 5 11 7 11 10 -2 15 -17 7 -11 37 6 37 6 0 5 -8 -3 -17 -11 -15 -11
-16 1 -5 8 7 15 25 16 40 3 39 9 60 19 69 4 4 5 2 1 -4 -4 -7 -2 -13 3 -13 6
0 11 12 11 26 0 16 4 23 12 18 7 -4 8 -3 4 5 -4 6 -2 19 6 28 8 10 8 14 1 10
-6 -4 -15 -2 -19 4 -4 8 -3 9 4 5 7 -4 12 -2 12 5 0 9 3 9 14 0 12 -10 13 -8
9 10 -5 17 -3 20 8 14 9 -5 8 -2 -2 10 -13 13 -15 24 -8 47 7 25 6 28 -6 18
-12 -10 -15 -8 -15 11 0 19 -2 21 -10 9 -5 -8 -10 -10 -10 -5 0 6 5 16 11 22
8 8 7 13 -2 18 -8 6 -10 4 -4 -5 5 -9 4 -11 -4 -6 -6 4 -8 13 -4 19 14 23 11
33 -11 33 -15 -1 -20 4 -18 17 2 9 -2 17 -8 17 -5 0 -10 5 -10 11 0 5 4 8 9 4
5 -3 13 -1 16 5 4 6 1 9 -7 8 -7 -2 -12 3 -10 11 2 8 -3 11 -12 8 -8 -3 -17 0
-20 8 -3 10 0 12 12 9 16 -5 16 -5 0 9 -14 11 -15 16 -5 27 9 9 9 11 0 6 -6
-3 -14 -2 -18 4 -3 5 -1 10 6 10 8 0 7 5 -2 17 -12 15 -12 16 4 10 28 -11 19
3 -10 15 -16 6 -31 12 -35 12 -19 3 -14 12 7 12 13 0 21 -4 18 -10 -3 -6 2 -3
12 6 14 13 16 20 7 31 -7 8 -9 17 -5 20 3 4 1 7 -5 7 -7 0 -12 -4 -12 -9z m-6
-29 c3 -5 -1 -9 -9 -9 -8 0 -12 4 -9 9 3 4 7 8 9 8 2 0 6 -4 9 -8z m1 -52 c3
-5 1 -10 -4 -10 -6 0 -11 5 -11 10 0 6 2 10 4 10 3 0 8 -4 11 -10z m-183 -317
c-6 -2 -9 -10 -6 -15 4 -7 2 -8 -5 -4 -13 9 -5 26 12 25 9 0 8 -2 -1 -6z
m-522 -463 c6 -11 8 -20 6 -20 -3 0 -10 9 -16 20 -6 11 -8 20 -6 20 3 0 10 -9
16 -20z m615 -109 c3 -5 2 -12 -3 -15 -5 -3 -9 1 -9 9 0 17 3 19 12 6z m396
-164 c-10 -9 -11 -8 -5 6 3 10 9 15 12 12 3 -3 0 -11 -7 -18z m-1360 -154 c13
-16 12 -17 -3 -4 -17 13 -22 21 -14 21 2 0 10 -8 17 -17z m99 -47 c0 -3 -4 -8
-10 -11 -5 -3 -10 -1 -10 4 0 6 5 11 10 11 6 0 10 -2 10 -4z m640 -180 c0 -2
-7 -7 -16 -10 -8 -3 -12 -2 -9 4 6 10 25 14 25 6z"/>
<path d="M1563 2335 c0 -8 4 -12 9 -9 5 3 6 10 3 15 -9 13 -12 11 -12 -6z"/>
<path d="M1586 2236 c7 -19 20 -21 30 -3 4 6 4 9 -1 5 -4 -4 -14 -3 -22 4 -11
8 -12 7 -7 -6z"/>
<path d="M1565 2220 c-4 -7 -18 -9 -32 -5 -19 4 -23 2 -21 -11 2 -10 -4 -18
-15 -19 -9 -2 -15 1 -11 6 3 5 10 6 16 3 7 -4 8 -2 4 5 -6 8 -12 9 -20 2 -7
-6 -16 -8 -20 -4 -4 4 -4 1 -1 -8 5 -12 -3 -15 -38 -14 -28 0 -44 -4 -44 -12
0 -7 5 -9 10 -6 6 3 7 1 3 -6 -4 -6 -12 -8 -18 -5 -6 4 -14 0 -19 -7 -7 -11
-9 -11 -9 -1 0 7 -5 10 -10 7 -6 -4 -7 -12 -3 -18 4 -7 0 -6 -10 2 -15 12 -17
11 -17 -3 0 -10 -4 -15 -8 -12 -4 2 -14 0 -22 -6 -12 -8 -11 -9 4 -4 13 5 17
2 12 -9 -7 -20 4 -46 17 -38 6 4 8 0 4 -10 -4 -10 -1 -17 6 -17 8 0 6 -4 -3
-10 -11 -7 -11 -10 -2 -10 7 0 10 -4 7 -10 -3 -5 1 -10 10 -10 9 0 14 -4 10
-9 -3 -5 2 -17 11 -25 11 -11 12 -16 3 -16 -7 0 -4 -7 7 -15 19 -15 19 -15 -1
-8 -17 6 -18 5 -5 -9 8 -9 18 -14 23 -11 4 2 7 -6 7 -17 0 -17 4 -21 18 -16
14 5 14 4 -2 -9 -11 -8 -17 -16 -13 -16 4 -1 11 -2 16 -3 5 0 13 -5 18 -10 4
-5 3 -7 -2 -3 -6 3 -16 -2 -22 -12 -9 -14 -8 -18 3 -18 7 0 11 4 8 9 -3 4 0 8
5 8 6 0 11 -4 11 -10 0 -17 3 -25 22 -44 9 -10 15 -23 12 -27 -2 -4 4 -12 13
-18 10 -6 13 -11 8 -11 -6 0 -16 5 -23 12 -9 9 -12 9 -12 1 0 -7 8 -14 18 -18
23 -7 46 -52 31 -60 -15 -10 0 -25 19 -18 15 6 16 5 2 -12 -14 -17 -13 -18 3
-12 15 6 16 4 6 -16 -11 -19 -10 -20 3 -9 13 11 16 10 14 -5 0 -10 5 -17 12
-15 6 1 12 -2 12 -7 0 -5 -6 -11 -12 -14 -10 -3 -8 -9 5 -24 9 -11 14 -23 10
-28 -5 -4 0 -5 9 -2 10 3 20 1 24 -5 4 -7 3 -8 -4 -4 -7 4 -12 2 -12 -3 0 -6
5 -11 10 -11 6 0 10 -13 10 -30 0 -16 5 -30 11 -30 5 0 7 5 3 12 -4 7 -3 8 4
4 6 -4 9 -13 5 -21 -4 -11 0 -14 13 -9 18 6 18 6 0 -8 -18 -14 -18 -15 3 -30
14 -10 18 -18 12 -23 -13 -8 -5 -25 12 -25 7 0 6 4 -3 10 -13 8 -12 10 3 10
19 0 23 -26 5 -33 -8 -3 -5 -6 6 -6 15 -1 16 -4 6 -16 -11 -13 -10 -14 5 -9
14 6 16 3 11 -14 -6 -18 -4 -21 10 -15 13 5 16 3 11 -10 -4 -12 -1 -17 10 -17
15 0 15 -2 -2 -13 -13 -10 -15 -16 -6 -21 6 -4 8 -12 5 -18 -4 -6 -2 -8 4 -4
6 3 13 2 17 -4 4 -6 10 -8 15 -5 4 3 6 -4 3 -15 -3 -13 0 -20 8 -20 11 0 11
-2 -1 -10 -11 -7 -11 -10 -2 -10 7 0 11 -4 8 -9 -3 -5 2 -8 12 -7 10 0 16 -6
16 -16 -1 -10 2 -18 7 -18 5 0 9 -5 9 -11 0 -5 -5 -7 -12 -3 -7 5 -8 3 -4 -5
5 -7 13 -10 20 -8 7 3 13 -7 14 -26 2 -17 8 -34 14 -38 6 -4 8 -14 5 -22 -4
-12 -2 -14 10 -10 13 5 15 1 11 -20 -5 -24 -3 -25 10 -15 13 10 14 10 8 0 -4
-7 -2 -12 6 -12 9 0 9 -3 -2 -10 -13 -8 -12 -10 3 -10 11 0 17 -8 17 -22 0
-19 2 -20 10 -8 13 20 13 4 0 -20 -7 -13 -7 -21 0 -25 6 -4 8 -10 5 -14 -2 -5
7 -7 22 -5 19 2 23 0 14 -9 -13 -13 -15 -31 -2 -23 5 3 12 -1 15 -10 4 -10 2
-13 -6 -8 -7 4 -8 3 -4 -4 4 -7 2 -12 -5 -12 -7 0 -10 -3 -7 -6 4 -3 15 -1 27
5 14 8 22 8 27 -1 4 -6 3 -8 -4 -4 -6 3 -13 2 -17 -4 -3 -5 -1 -10 5 -10 6 0
9 -3 6 -8 -2 -4 7 -12 20 -19 14 -6 26 -7 30 -2 3 5 11 9 17 9 7 0 6 -4 -3
-10 -8 -5 -11 -10 -6 -10 5 0 18 8 28 17 15 13 18 14 15 2 -2 -8 -2 -11 0 -6
3 4 12 7 21 7 15 0 15 2 2 11 -12 8 -9 10 12 6 20 -3 25 0 21 11 -5 12 -2 12
16 2 20 -10 23 -9 28 9 3 11 9 18 14 15 5 -3 7 -10 4 -15 -4 -5 -1 -9 6 -9 6
0 9 8 6 20 -6 25 -3 25 19 2 15 -15 17 -15 12 -1 -4 9 -1 22 5 29 9 10 9 11 0
6 -16 -9 -21 13 -12 47 7 26 6 27 -8 15 -15 -11 -16 -10 -11 10 6 20 4 22 -10
10 -10 -8 -13 -9 -9 -1 4 6 3 14 -2 18 -6 3 -8 12 -4 20 3 9 -1 15 -8 16 -8 0
-5 4 6 9 15 7 16 9 4 9 -23 1 -45 30 -41 53 2 11 -2 26 -8 34 -9 10 -9 14 -1
14 6 0 11 4 11 9 0 5 -10 7 -22 5 -13 -2 -17 -2 -10 2 17 8 15 27 -2 21 -10
-4 -13 -1 -9 9 3 8 -1 22 -8 31 -12 14 -12 15 -1 9 11 -7 12 -4 3 13 -9 16 -9
21 1 21 7 0 4 6 -7 12 -24 14 -35 29 -29 40 3 4 0 8 -5 8 -6 0 -11 9 -11 19 0
11 -5 23 -12 27 -7 5 -8 3 -3 -6 5 -8 4 -11 -1 -7 -6 3 -9 22 -9 42 1 28 -2
35 -13 30 -13 -5 -13 -3 -1 11 11 14 11 18 1 21 -6 3 -9 10 -6 15 4 7 2 8 -5
4 -9 -6 -9 -11 0 -22 8 -10 8 -14 0 -14 -6 0 -11 5 -11 10 0 18 -2 25 -13 45
-9 18 -9 19 7 6 14 -12 16 -12 10 2 -3 9 -14 19 -25 22 -10 4 -19 11 -19 17 0
7 4 7 13 -1 10 -8 14 -7 14 4 0 8 -4 12 -8 9 -4 -2 -10 0 -14 6 -4 6 -11 7
-17 4 -6 -4 -8 -2 -5 3 9 14 -3 74 -14 68 -4 -3 -11 0 -15 6 -4 8 -3 9 4 5 7
-4 12 -2 12 3 0 6 -8 11 -17 12 -16 0 -16 1 1 8 18 7 18 8 2 14 -14 6 -16 10
-7 21 9 10 9 16 1 21 -8 5 -7 11 2 23 11 13 11 14 -2 7 -25 -15 -39 -14 -33 3
5 11 3 13 -7 7 -8 -5 -11 -4 -6 3 3 5 3 12 -1 15 -5 2 -2 2 5 1 6 -2 12 1 12
6 0 6 -5 10 -12 10 -6 0 -9 3 -5 6 3 4 1 12 -6 20 -37 41 -49 63 -28 49 5 -3
13 -1 16 5 4 6 1 9 -7 8 -8 -2 -12 4 -10 16 2 10 -1 15 -7 12 -12 -8 -34 31
-25 45 3 6 -2 20 -13 31 -10 12 -12 18 -5 14 12 -7 12 -4 1 15 -7 13 -12 27
-11 31 1 5 -4 7 -11 5 -6 -1 -12 8 -12 20 0 11 -4 25 -9 30 -5 5 -6 2 -1 -6 5
-9 4 -12 -3 -7 -6 3 -9 15 -7 26 2 11 -1 17 -8 14 -11 -4 -16 15 -20 78 -1 9
-5 14 -9 12 -4 -3 -8 0 -8 6 0 6 -5 8 -12 4 -8 -5 -9 -2 -4 11 5 14 0 25 -16
38 -13 10 -17 16 -11 12 9 -4 11 -1 7 9 -3 9 -11 13 -16 10 -7 -5 -9 5 -6 25
3 18 0 35 -5 38 -6 3 -7 1 -3 -5 4 -7 2 -12 -5 -12 -6 0 -9 8 -6 19 4 17 2 18
-13 9 -14 -9 -22 -9 -33 1 -11 9 -17 9 -22 1z m142 -192 c-3 -8 -6 -5 -6 6 -1
11 2 17 5 13 3 -3 4 -12 1 -19z m87 -166 c2 -4 0 -14 -6 -22 -8 -12 -9 -12 -5
2 3 9 1 19 -6 22 -9 3 -9 5 0 5 6 1 14 -3 17 -7z m141 -312 c3 -6 -1 -7 -9 -4
-18 7 -21 14 -7 14 6 0 13 -4 16 -10z m-179 -395 c9 -8 11 -15 6 -15 -5 0 -15
7 -22 15 -7 8 -9 15 -6 15 4 0 14 -7 22 -15z m371 -70 c0 -8 -4 -15 -9 -15 -4
0 -8 7 -8 15 0 8 4 15 8 15 5 0 9 -7 9 -15z m-162 -325 c3 -5 1 -10 -4 -10 -6
0 -11 5 -11 10 0 6 2 10 4 10 3 0 8 -4 11 -10z"/>
<path d="M1165 2210 c-3 -6 1 -7 9 -4 18 7 21 14 7 14 -6 0 -13 -4 -16 -10z"/>
<path d="M1993 1793 c4 -6 0 -13 -8 -17 -8 -3 -15 -1 -15 4 0 6 -5 10 -11 10
-5 0 -7 -4 -4 -10 9 -14 -8 -12 -24 3 -11 10 -13 10 -7 0 6 -12 -5 -18 -26
-14 -5 0 -8 -3 -8 -8 0 -6 9 -9 20 -8 11 1 20 5 20 10 0 4 5 5 12 1 8 -5 2
-12 -17 -20 -26 -12 -27 -13 -7 -14 12 0 22 -5 22 -11 0 -5 -6 -7 -12 -4 -7 4
-5 0 4 -8 14 -11 15 -16 5 -27 -10 -10 -9 -12 6 -7 21 8 22 3 2 -16 -13 -13
-13 -16 1 -21 8 -3 12 -2 9 4 -3 6 -1 10 4 10 6 0 11 -9 11 -20 0 -11 5 -20
10 -20 6 0 10 -5 10 -11 0 -5 -4 -8 -8 -5 -5 3 -9 -2 -9 -10 0 -8 5 -13 11
-11 6 2 22 -4 35 -15 14 -10 27 -15 30 -11 7 10 47 10 56 1 11 -11 35 3 28 16
-4 6 1 5 10 -3 11 -9 17 -10 17 -2 0 6 5 11 11 11 5 0 7 -5 3 -12 -4 -6 -3 -8
4 -4 6 3 9 16 7 27 -3 16 -1 18 9 10 20 -17 38 11 33 48 -3 16 -2 32 1 36 3 3
6 14 7 24 1 13 -3 17 -14 13 -13 -5 -14 -3 -4 10 14 16 8 28 -14 28 -9 0 -11
-5 -7 -12 4 -7 -5 -2 -19 11 -29 26 -35 37 -14 25 6 -4 9 -3 4 1 -4 5 -16 9
-27 10 -15 1 -17 -1 -9 -12 16 -18 4 -16 -16 3 -12 12 -19 13 -29 5 -11 -9
-15 -9 -18 1 -4 10 -8 10 -21 -1 -14 -11 -17 -11 -18 0 0 8 -4 5 -9 -6 -7 -16
-9 -17 -9 -3 -1 9 -6 20 -13 24 -6 4 -8 3 -5 -3z m222 -182 c3 -5 2 -12 -3
-15 -5 -3 -9 1 -9 9 0 17 3 19 12 6z"/>
<path d="M2177 1775 c-4 -8 -3 -16 1 -19 4 -3 9 4 9 15 2 23 -3 25 -10 4z"/>
<path d="M388 1773 c7 -3 16 -2 19 1 4 3 -2 6 -13 5 -11 0 -14 -3 -6 -6z"/>
<path d="M1837 1769 c7 -7 15 -10 18 -7 3 3 -2 9 -12 12 -14 6 -15 5 -6 -5z"/>
<path d="M1435 1740 c3 -5 11 -10 16 -10 6 0 7 5 4 10 -3 6 -11 10 -16 10 -6
0 -7 -4 -4 -10z"/>
<path d="M1470 1666 c0 -2 8 -10 18 -17 15 -13 16 -12 3 4 -13 16 -21 21 -21
13z"/>
<path d="M2233 1655 c0 -8 4 -12 9 -9 5 3 6 10 3 15 -9 13 -12 11 -12 -6z"/>
<path d="M1990 1560 c0 -5 5 -10 11 -10 5 0 7 5 4 10 -3 6 -8 10 -11 10 -2 0
-4 -4 -4 -10z"/>
<path d="M95 1349 c-4 -6 -5 -12 -2 -15 2 -3 7 2 10 11 7 17 1 20 -8 4z"/>
<path d="M1313 1353 c-7 -2 -13 -9 -13 -15 0 -7 5 -7 13 1 8 6 18 7 22 3 5 -4
5 -1 1 6 -4 6 -8 12 -9 11 -1 0 -8 -3 -14 -6z"/>
<path d="M2146 1344 c-9 -8 -16 -11 -16 -5 0 6 -5 11 -11 11 -6 0 -9 -7 -5
-15 3 -8 2 -15 -2 -15 -6 0 -7 -21 -3 -62 1 -5 6 -8 12 -8 8 0 8 4 0 14 -8 10
-9 16 -1 21 6 4 9 1 8 -7 -2 -7 4 -12 12 -10 11 3 10 -1 -3 -16 -13 -14 -15
-22 -7 -27 6 -4 9 -14 5 -22 -5 -14 -3 -14 11 -2 16 13 16 12 5 -8 -10 -20 -9
-22 6 -16 16 6 17 5 3 -12 -9 -11 -10 -16 -2 -11 7 4 12 1 12 -8 0 -10 9 -16
23 -16 18 0 19 -2 7 -10 -8 -5 -10 -10 -4 -10 5 0 16 6 23 13 9 7 11 7 8 1 -4
-7 0 -14 8 -17 10 -4 12 -1 9 11 -5 15 -4 15 9 -1 13 -15 15 -16 21 -2 5 14 9
14 33 -2 26 -16 27 -16 14 0 -9 12 -10 17 -2 17 6 0 14 -7 17 -15 6 -14 8 -13
19 1 8 12 14 14 19 6 4 -7 15 -12 24 -12 13 0 14 2 3 9 -8 6 -1 8 22 7 19 0
33 -5 30 -9 -7 -12 30 -4 40 8 4 6 11 4 18 -5 9 -13 10 -13 6 2 -3 9 1 22 9
29 12 10 13 9 8 -5 -3 -9 -1 -16 5 -16 6 0 10 3 10 8 -1 4 -1 15 0 26 1 16 3
17 18 5 16 -13 16 -12 0 14 -15 23 -16 28 -3 33 8 3 17 13 20 21 6 14 4 14
-11 2 -10 -7 -15 -9 -11 -5 4 5 2 16 -4 24 -15 17 -20 44 -7 36 5 -3 7 -9 4
-14 -3 -4 2 -11 10 -14 13 -5 14 -2 3 17 -7 12 -11 26 -10 30 1 4 -7 3 -17 -3
-16 -8 -22 -7 -29 6 -6 10 -16 15 -25 11 -9 -3 -19 -2 -23 4 -4 6 -11 6 -20
-2 -12 -10 -13 -9 -7 7 6 17 5 17 -10 5 -9 -7 -17 -10 -17 -5 0 5 -5 2 -11 -6
-9 -13 -10 -13 -6 0 2 8 10 14 16 12 7 -1 10 2 6 7 -7 13 -35 3 -35 -13 0 -6
-5 -3 -11 7 -10 18 -11 18 -32 0 -11 -10 -17 -12 -12 -4 5 9 3 12 -6 9 -8 -3
-13 -11 -11 -18 2 -11 0 -11 -12 -1 -10 8 -16 9 -21 1 -3 -6 -12 -7 -18 -3
-18 11 -49 14 -43 5 3 -5 -1 -9 -9 -9 -11 0 -12 4 -4 14 14 16 -3 17 -19 1 -7
-7 -12 -8 -12 -2 0 5 -5 2 -11 -6 -9 -13 -10 -13 -6 0 2 8 10 14 16 12 7 -1
10 2 6 8 -8 13 -11 13 -29 -6z m205 -17 c-10 -9 -11 -8 -5 6 3 10 9 15 12 12
3 -3 0 -11 -7 -18z"/>
<path d="M2226 1348 c3 -5 10 -6 15 -3 13 9 11 12 -6 12 -8 0 -12 -4 -9 -9z"/>
<path d="M2273 1353 c-7 -2 -13 -9 -13 -15 0 -7 5 -7 13 1 8 6 18 7 22 3 5 -4
5 -1 1 6 -4 6 -8 12 -9 11 -1 0 -8 -3 -14 -6z"/>
<path d="M1548 1343 c7 -3 16 -2 19 1 4 3 -2 6 -13 5 -11 0 -14 -3 -6 -6z"/>
<path d="M2470 1339 c0 -5 5 -7 10 -4 6 3 10 8 10 11 0 2 -4 4 -10 4 -5 0 -10
-5 -10 -11z"/>
<path d="M75 1120 c-3 -5 -1 -10 4 -10 6 0 11 5 11 10 0 6 -2 10 -4 10 -3 0
-8 -4 -11 -10z"/>
<path d="M2201 893 c6 -7 17 -13 23 -12 7 0 6 2 -2 6 -6 2 -10 8 -8 12 3 4 -1
8 -9 8 -11 0 -12 -4 -4 -14z"/>
<path d="M687 773 c-4 -3 -7 -11 -7 -17 0 -6 5 -5 12 2 6 6 9 14 7 17 -3 3 -9
2 -12 -2z"/>
<path d="M2030 611 c0 -6 4 -13 10 -16 6 -3 7 1 4 9 -7 18 -14 21 -14 7z"/>
<path d="M2226 593 c-8 -16 -15 -22 -16 -14 0 11 -3 11 -15 1 -12 -10 -15 -10
-16 1 0 8 -5 3 -10 -11 -6 -13 -13 -20 -17 -15 -4 6 -13 11 -21 13 -12 3 -12
1 0 -14 13 -16 12 -16 -11 -4 -23 12 -24 12 -11 -3 14 -18 8 -21 -29 -18 -9 1
-6 -4 7 -11 21 -13 23 -16 23 -39 0 -8 4 -8 14 0 12 10 13 8 9 -8 -3 -12 -1
-21 6 -21 6 0 11 5 11 12 0 6 3 8 6 5 4 -4 2 -13 -5 -21 -9 -11 -7 -15 14 -20
14 -4 25 -11 25 -17 0 -6 -4 -8 -9 -4 -5 3 -13 1 -16 -5 -4 -6 -1 -9 7 -8 7 2
12 -3 10 -10 -2 -10 2 -10 17 -2 25 13 34 13 26 0 -3 -5 5 -15 19 -21 25 -12
41 -37 31 -47 -3 -3 -5 0 -5 7 0 7 -5 9 -12 4 -7 -4 -26 -8 -43 -9 l-29 -2 24
14 c23 12 20 19 -4 15 -5 -1 -3 6 5 15 13 16 12 16 -8 4 -12 -8 -20 -17 -18
-21 3 -3 -7 -4 -20 -1 -15 2 -22 9 -18 16 4 7 1 6 -9 -1 -8 -7 -18 -10 -21 -6
-4 3 -20 6 -37 5 -21 0 -28 3 -23 11 4 7 0 6 -10 -2 -9 -7 -17 -9 -17 -4 0 5
-14 9 -30 9 -21 0 -29 -4 -26 -12 3 -8 -1 -11 -10 -7 -7 3 -14 9 -14 15 0 5
-5 6 -10 3 -6 -4 -7 -11 -4 -17 4 -7 0 -7 -12 -1 -30 15 -62 10 -79 -12 -9
-13 -13 -14 -10 -4 4 10 0 16 -9 16 -8 0 -13 -5 -9 -10 3 -5 -4 -6 -18 -2 -13
3 -19 3 -14 -2 23 -19 12 -30 -29 -28 -38 1 -43 -1 -39 -20 2 -11 1 -14 -3 -7
-3 6 -10 12 -15 12 -6 0 -7 -5 -3 -12 5 -8 2 -9 -10 -5 -14 6 -17 3 -12 -9 6
-15 4 -15 -11 -3 -10 7 -15 10 -11 5 12 -14 -15 -35 -30 -24 -9 8 -11 7 -6 -7
6 -15 4 -16 -14 -6 -17 9 -19 8 -15 -8 3 -10 -1 -22 -8 -26 -7 -5 -10 -4 -6 2
4 6 0 14 -9 17 -8 3 -12 2 -9 -3 3 -5 0 -13 -6 -17 -6 -3 -15 0 -20 7 -5 8 -9
9 -9 3 0 -6 -7 -11 -15 -11 -8 0 -12 4 -9 9 3 4 -2 8 -11 8 -9 0 -14 4 -11 8
2 4 -4 9 -15 9 -12 1 -17 -3 -13 -9 4 -7 2 -8 -5 -4 -6 4 -9 11 -6 16 3 5 -3
13 -12 19 -10 6 -13 11 -7 11 5 0 15 -5 22 -12 9 -9 12 -9 12 0 0 6 -11 14
-25 18 -14 4 -24 9 -21 11 8 8 -18 31 -28 25 -5 -3 -7 2 -3 11 4 12 1 17 -9
17 -10 0 -14 6 -11 15 5 11 1 12 -18 5 -19 -7 -23 -6 -18 5 3 8 10 12 16 8 6
-3 7 -1 3 6 -4 6 -12 9 -17 6 -5 -4 -9 2 -10 12 0 16 -1 16 -9 -2 l-9 -20 -1
20 c-2 11 -2 23 -1 27 0 3 -11 5 -24 3 -14 -1 -25 2 -25 8 0 6 -5 5 -13 -1 -8
-7 -18 -7 -27 -2 -9 6 -20 4 -29 -3 -12 -10 -13 -9 -7 1 12 20 -26 11 -42 -11
-7 -9 -17 -15 -22 -12 -4 3 -11 -2 -14 -11 -5 -14 -9 -14 -23 -3 -12 10 -14
10 -9 2 4 -8 1 -13 -9 -13 -8 0 -20 -10 -25 -22 -5 -13 -9 -17 -9 -10 -1 6 -6
12 -11 12 -7 0 -7 -8 1 -22 6 -13 8 -20 4 -16 -5 4 -15 2 -24 -5 -14 -11 -15
-10 -1 7 14 18 14 19 -7 7 -14 -7 -20 -17 -17 -26 5 -11 2 -13 -10 -9 -12 5
-15 2 -10 -10 5 -12 2 -15 -10 -10 -11 4 -16 1 -16 -11 0 -11 -5 -15 -15 -12
-8 4 -17 1 -21 -5 -4 -7 -3 -8 4 -4 7 4 12 3 12 -2 0 -5 -10 -12 -21 -15 -14
-4 -20 -11 -16 -21 4 -10 0 -14 -14 -11 -14 3 -19 -1 -17 -13 2 -11 -3 -16
-12 -14 -8 2 -20 -4 -27 -14 -7 -10 -19 -14 -29 -10 -13 5 -14 4 -6 -7 8 -10
6 -13 -9 -15 -48 -4 -48 -5 -37 -25 8 -15 7 -18 -3 -11 -18 11 -69 13 -63 2 3
-5 10 -5 16 -2 7 5 8 2 3 -5 -5 -9 -13 -7 -31 10 -16 15 -21 26 -14 33 5 7 5
18 0 26 -5 8 -6 18 -3 24 3 5 1 6 -6 2 -6 -4 -8 -13 -4 -19 4 -7 -1 -6 -10 2
-14 11 -15 16 -5 29 10 13 10 14 1 8 -8 -4 -13 -2 -13 5 0 7 -7 4 -16 -7 -8
-10 -12 -13 -8 -5 5 10 3 12 -5 7 -9 -6 -9 -11 0 -22 8 -10 8 -14 0 -14 -6 0
-11 -7 -11 -16 0 -8 4 -13 8 -10 5 3 9 -1 9 -9 0 -8 -4 -12 -9 -9 -4 3 -8 0
-8 -5 0 -6 5 -11 11 -11 8 0 7 -6 -2 -18 -7 -9 -9 -13 -4 -9 5 4 15 -3 23 -15
7 -13 11 -15 8 -6 -3 10 0 20 7 24 7 4 9 4 5 -1 -12 -12 12 -47 28 -41 8 3 14
1 14 -4 0 -5 -10 -11 -23 -13 -12 -3 6 -5 41 -4 45 0 62 4 62 13 0 8 7 14 15
14 7 0 19 8 25 18 10 14 11 13 6 -8 -4 -22 -4 -23 8 -8 7 10 16 14 20 10 5 -4
6 0 5 8 -2 8 0 16 5 17 5 0 13 8 18 17 5 8 15 13 24 9 8 -3 24 3 34 12 25 22
26 36 3 29 -14 -4 -14 -3 1 7 15 9 21 9 24 1 2 -7 8 -9 13 -6 6 3 5 11 -2 20
-10 12 -9 13 4 9 8 -4 18 -1 23 6 5 8 3 10 -7 5 -8 -4 -5 0 6 9 11 9 19 21 17
26 -1 6 3 7 9 4 8 -5 8 -10 0 -18 -6 -6 -11 -15 -11 -21 0 -5 6 -1 14 9 8 11
12 23 10 26 -2 4 3 12 11 19 13 11 15 10 10 -6 -4 -13 -2 -12 6 3 7 13 16 23
21 23 5 0 6 -5 2 -12 -4 -6 -3 -8 4 -4 6 3 9 15 7 25 -2 12 2 18 12 17 9 0 18
5 21 13 3 9 0 11 -8 6 -8 -5 -11 -4 -6 3 3 6 16 9 27 7 15 -3 19 0 15 11 -4
12 -2 12 14 4 13 -7 21 -7 26 2 4 7 3 8 -4 4 -7 -4 -12 -3 -12 2 0 17 13 22
28 9 10 -8 13 -8 9 -1 -4 7 0 14 8 18 8 3 17 1 20 -5 4 -5 11 -7 16 -4 5 4 15
3 22 -2 18 -11 38 -13 31 -2 -3 5 0 9 5 9 10 0 15 -14 12 -34 -1 -5 6 -6 15
-2 12 5 15 2 10 -10 -5 -14 -4 -15 9 -4 11 9 15 9 15 1 0 -7 5 -9 12 -5 7 4 8
3 4 -5 -4 -6 -11 -9 -16 -6 -5 3 -12 0 -16 -6 -4 -7 -3 -9 4 -5 6 3 17 0 25
-8 8 -8 18 -12 23 -8 5 4 2 -2 -6 -12 -10 -13 -10 -17 -2 -12 7 4 12 2 12 -4
0 -7 6 -10 14 -7 8 3 13 -1 12 -11 -1 -10 6 -16 16 -16 10 1 15 -2 12 -7 -3
-5 2 -12 10 -15 9 -3 14 -10 11 -14 -3 -4 2 -11 11 -14 8 -3 12 -2 9 3 -3 5 0
13 6 17 8 4 9 3 5 -4 -4 -7 -2 -12 4 -12 6 0 8 -5 4 -12 -5 -8 -2 -9 9 -5 12
4 17 1 17 -10 0 -13 3 -14 12 -5 15 15 42 16 32 0 -5 -7 -3 -8 5 -4 7 5 10 15
7 25 -4 9 3 5 15 -9 l22 -25 -8 25 c-4 14 -4 22 0 18 5 -4 14 0 22 10 14 16
14 16 8 -3 -5 -15 -3 -17 6 -8 6 6 18 9 27 6 10 -4 13 -2 8 5 -4 7 -2 12 4 12
6 0 8 5 4 13 -5 8 -2 7 9 -2 15 -12 17 -12 11 4 -6 15 -4 16 13 7 15 -9 20 -8
20 3 0 8 -5 11 -10 8 -6 -3 -7 -1 -3 5 5 9 13 9 29 0 20 -10 21 -10 8 6 -8 9
-10 16 -5 15 21 -4 45 2 40 10 -8 12 37 8 47 -4 5 -6 7 -4 4 5 -2 8 -10 14
-16 12 -6 -1 -11 3 -11 8 0 6 6 10 13 9 34 -4 58 2 51 14 -6 10 -4 10 7 0 19
-18 29 -16 23 5 -5 16 -5 16 6 -1 6 -9 16 -15 21 -12 5 4 7 10 4 14 -2 5 7 7
22 5 14 -1 30 -9 34 -16 7 -10 9 -10 9 0 0 14 21 12 33 -3 5 -5 5 1 1 15 -6
22 -5 23 9 12 9 -8 22 -10 29 -6 20 13 39 13 31 1 -4 -6 0 -8 11 -4 10 4 19 1
22 -8 4 -8 10 -15 16 -15 5 0 7 4 3 10 -3 5 7 3 22 -5 18 -10 31 -11 39 -4 8
7 17 5 28 -6 10 -10 16 -12 16 -5 0 7 9 2 21 -11 11 -13 18 -19 15 -12 -4 7 1
11 14 10 11 -1 20 -8 21 -17 0 -9 2 -10 5 -3 3 7 12 9 21 6 13 -5 15 -1 11 20
-4 20 -2 25 6 18 8 -7 12 -4 12 9 0 10 -4 17 -7 14 -4 -2 -10 0 -14 6 -3 5 -2
10 3 10 6 0 8 9 5 20 -3 11 -8 18 -12 16 -3 -2 -11 2 -18 9 -10 10 -9 14 3 19
10 4 13 2 8 -7 -5 -9 -3 -8 7 1 12 11 12 14 -1 22 -14 9 -7 14 13 11 4 -1 3 8
-3 19 -6 11 -7 20 -3 20 4 0 8 11 8 25 0 14 -3 25 -7 25 -5 0 -8 5 -8 11 0 5
5 7 11 3 8 -5 8 -1 0 13 -6 11 -7 24 -3 28 4 5 -1 5 -10 2 -13 -4 -16 -1 -13
14 2 11 0 17 -4 15 -4 -3 -13 6 -19 19 -16 35 -37 32 -34 -5 0 -3 -8 -6 -18
-6 -10 0 -16 6 -13 13 3 7 10 10 16 6 6 -3 7 -1 3 5 -10 17 -14 15 -30 -15z
m-948 -208 c-3 -3 -9 2 -12 12 -6 14 -5 15 5 6 7 -7 10 -15 7 -18z m-91 0 c0
-8 -4 -12 -9 -9 -5 3 -6 10 -3 15 9 13 12 11 12 -6z m43 -36 c0 -6 -4 -7 -10
-4 -5 3 -10 11 -10 16 0 6 5 7 10 4 6 -3 10 -11 10 -16z m785 1 c3 -6 -1 -7
-9 -4 -18 7 -21 14 -7 14 6 0 13 -4 16 -10z m-125 -6 c0 -8 -19 -13 -24 -6 -3
5 1 9 9 9 8 0 15 -2 15 -3z m440 -24 c0 -5 -2 -10 -4 -10 -3 0 -8 5 -11 10 -3
6 -1 10 4 10 6 0 11 -4 11 -10z m-40 -54 c0 -2 -7 -7 -16 -10 -8 -3 -12 -2 -9
4 6 10 25 14 25 6z m-782 -131 c-3 -3 -9 2 -12 12 -6 14 -5 15 5 6 7 -7 10
-15 7 -18z m-653 -25 c-3 -5 -11 -10 -16 -10 -6 0 -7 5 -4 10 3 6 11 10 16 10
6 0 7 -4 4 -10z m-205 -90 c0 -5 -5 -10 -11 -10 -5 0 -7 5 -4 10 3 6 8 10 11
10 2 0 4 -4 4 -10z"/>
<path d="M2233 347 c14 -11 15 -16 5 -20 -9 -4 -9 -6 -1 -6 23 -2 23 18 1 29
-21 10 -22 10 -5 -3z"/>
<path d="M2051 286 c-10 -11 -9 -14 1 -12 14 2 23 15 15 22 -2 2 -10 -2 -16
-10z"/>
<path d="M1935 280 c-3 -5 -1 -10 4 -10 6 0 11 5 11 10 0 6 -2 10 -4 10 -3 0
-8 -4 -11 -10z"/>
<path d="M2095 280 c-3 -5 -1 -10 4 -10 6 0 11 5 11 10 0 6 -2 10 -4 10 -3 0
-8 -4 -11 -10z"/>
</g>
</svg>
